<!-- Generated by IcoMoon.io -->
<svg version="1.1" xmlns="http://www.w3.org/2000/svg" width="34" height="32" viewBox="0 0 34 32">
<title>icon-check</title>
<path fill="#2196f3" d="M4.267 0h25.6c2.356 0 4.267 1.91 4.267 4.267v23.467c0 2.356-1.91 4.267-4.267 4.267h-25.6c-2.356 0-4.267-1.91-4.267-4.267v-23.467c0-2.356 1.91-4.267 4.267-4.267z"></path>
<path fill="#fff" stroke="#fff" stroke-linejoin="miter" stroke-linecap="butt" stroke-miterlimit="4" stroke-width="0.4267" d="M8.448 16.533l-0.149-0.128-0.149 0.128-1.899 1.792-0.171 0.149 0.171 0.171 7.616 7.253 0.128-0.149 16.171-15.424-0.149-0.149-1.877-1.792-0.149-0.149-0.149 0.149-13.973 13.312-5.419-5.163z"></path>
</svg>
